<?xml version="1.0" encoding="UTF-8" standalone="no"?>
<svg
   xmlns:dc="http://purl.org/dc/elements/1.1/"
   xmlns:cc="http://creativecommons.org/ns#"
   xmlns:rdf="http://www.w3.org/1999/02/22-rdf-syntax-ns#"
   xmlns:svg="http://www.w3.org/2000/svg"
   xmlns="http://www.w3.org/2000/svg"
   xmlns:sodipodi="http://sodipodi.sourceforge.net/DTD/sodipodi-0.dtd"
   xmlns:inkscape="http://www.inkscape.org/namespaces/inkscape"
   viewBox="0 0 184.25 39.42"
   version="1.1"
   id="svg26"
   sodipodi:docname="logo.svg"
   inkscape:version="0.92.2 5c3e80d, 2017-08-06">
  <metadata
     id="metadata30">
    <rdf:RDF>
      <cc:Work
         rdf:about="">
        <dc:format>image/svg+xml</dc:format>
        <dc:type
           rdf:resource="http://purl.org/dc/dcmitype/StillImage" />
        <dc:title>Asset 3</dc:title>
      </cc:Work>
    </rdf:RDF>
  </metadata>
  <sodipodi:namedview
     pagecolor="#ffffff"
     bordercolor="#666666"
     borderopacity="1"
     objecttolerance="10"
     gridtolerance="10"
     guidetolerance="10"
     inkscape:pageopacity="0"
     inkscape:pageshadow="2"
     inkscape:window-width="1437"
     inkscape:window-height="799"
     id="namedview28"
     showgrid="false"
     inkscape:zoom="1.5630936"
     inkscape:cx="3.8385417"
     inkscape:cy="19.709999"
     inkscape:window-x="0"
     inkscape:window-y="0"
     inkscape:window-maximized="0"
     inkscape:current-layer="svg26" />
  <defs
     id="defs4">
    <style
       id="style2">.cls-1{fill:#fff;}</style>
  </defs>
  <title
     id="title6">Asset 3</title>
  <g
     id="Layer_2"
     data-name="Layer 2"
     style="fill:#444444;fill-opacity:1">
    <g
       id="Шар_1"
       data-name="Шар 1"
       style="fill:#444444;fill-opacity:1">
      <polygon
         class="cls-1"
         points="39.36 25.79 39.36 25.77 39.36 13.66 39.36 6.83 32.53 6.83 32.53 32.6 58.3 32.6 58.3 25.79 39.36 25.79"
         id="polygon8"
         style="fill:#444444;fill-opacity:1" />
      <polygon
         class="cls-1"
         points="137.17 25.79 137.17 25.77 137.17 13.66 137.17 6.83 130.35 6.83 130.35 32.6 156.11 32.6 156.11 25.79 137.17 25.79"
         id="polygon10"
         style="fill:#444444;fill-opacity:1" />
      <polygon
         class="cls-1"
         points="184.25 6.84 174.6 6.84 166.04 15.4 157.48 6.84 147.83 6.84 162.89 21.9 162.89 32.6 169.72 32.6 169.72 22.04 169.72 21.38 184.25 6.84"
         id="polygon12"
         style="fill:#444444;fill-opacity:1" />
      <path
         class="cls-1"
         d="M25.75,6.84H0V32.6H25.76ZM18.94,25.66H6.82V22.31H18.94Zm0-8.65H6.82V13.66H18.94Z"
         id="path14"
         style="fill:#444444;fill-opacity:1" />
      <path
         class="cls-1"
         d="M97.75,6.84V32.61h18.94v6.81h6.82V32.61h0V6.84Zm6.82,6.83h12.12V25.78H104.57Z"
         id="path16"
         style="fill:#444444;fill-opacity:1" />
      <polygon
         class="cls-1"
         points="71.97 17.48 71.97 25.77 84.08 25.77 84.08 13.66 75.78 13.66 75.78 6.83 90.91 6.83 90.91 32.6 65.14 32.6 65.14 17.48 71.97 17.48"
         id="polygon18"
         style="fill:#444444;fill-opacity:1" />
      <rect
         class="cls-1"
         x="65.14"
         y="6.83"
         width="6.83"
         height="6.83"
         id="rect20"
         style="fill:#444444;fill-opacity:1" />
      <rect
         class="cls-1"
         x="58.31"
         width="6.83"
         height="6.83"
         id="rect22"
         style="fill:#444444;fill-opacity:1" />
    </g>
  </g>
</svg>
